/* XPM */
static char *bitcoin16[] = {
/* columns rows colors chars-per-pixel */
"16 16 111 2 ",
"   c #503F21",
".  c #7C6118",
"X  c #7D6427",
"o  c #7E6428",
"O  c #91791E",
"+  c #937A1E",
"@  c #CB8E29",
"#  c #CA8E2B",
"$  c #CC8F29",
"%  c #D38624",
"&  c #D68E2C",
"*  c #CC912A",
"=  c #CC922A",
"-  c #CB912F",
";  c #CF992C",
":  c #D79527",
">  c #D9942C",
",  c #DA972F",
"<  c #DB982B",
"1  c #C28D31",
"2  c #C38E34",
"3  c #C58F39",
"4  c #C59039",
"5  c #D99931",
"6  c #DB9831",
"7  c #DA9A31",
"8  c #D89932",
"9  c #DA9C31",
"0  c #DA9C36",
"q  c #DDA134",
"w  c #DDA334",
"e  c #DFA435",
"r  c #E1A125",
"t  c #E2A22C",
"y  c #E2A52F",
"u  c #E9AC2B",
"i  c #E6B92B",
"p  c #F0BB2F",
"a  c #E5A535",
"s  c #E6A735",
"d  c #E6A736",
"f  c #E7A836",
"g  c #E9AD33",
"h  c #EAAD33",
"j  c #E8AA37",
"k  c #E8AB37",
"l  c #E9AD34",
"z  c #E9AC37",
"x  c #E6A738",
"c  c #E6A93C",
"v  c #EAAF3A",
"b  c #E6B136",
"n  c #E4B435",
"m  c #EEB434",
"M  c #EEB635",
"N  c #EFB736",
"B  c #E7B839",
"V  c #ECBE38",
"C  c #F1BA32",
"Z  c #F3BF30",
"A  c #F2BE31",
"S  c #F2BD33",
"D  c #F1BA37",
"F  c #F1BD39",
"G  c #F2BD38",
"H  c #EBCD33",
"J  c #ECC834",
"K  c #EFC33C",
"L  c #F4C030",
"P  c #F4C130",
"I  c #F4C031",
"U  c #F5C230",
"Y  c #F5C331",
"T  c #F4C132",
"R  c #F4C033",
"E  c #F5C233",
"W  c #F6C431",
"Q  c #F7C531",
"!  c #F7C731",
"~  c #F7C532",
"^  c #F7C733",
"/  c #F3C034",
"(  c #F2C036",
")  c #F6C435",
"_  c #F7C537",
"`  c #F8C732",
"'  c #F8C633",
"]  c #F8C831",
"[  c #FACA32",
"{  c #FACA33",
"}  c #FACB37",
"|  c #FCCE37",
" . c #FBCE3A",
".. c #FBCE3B",
"X. c #FCCF3A",
"o. c #FACD3C",
"O. c #EAD53B",
"+. c #ECD839",
"@. c #E9D83F",
"#. c #FFD334",
"$. c #FFD434",
"%. c #EABA4B",
"&. c #FDD64D",
"*. c #ECC254",
"=. c #EFC65C",
"-. c #FCD757",
";. c #EFCC6B",
":. c #F2D26F",
">. c #F2CF70",
",. c #F3D47C",
"<. c None",
/* pixels */
"<.<.<.<.<.<.<.<.<.<.<.<.<.<.<.<.",
"<.<.<.<.<.L W Z C g <.<.<.<.<.<.",
"<.<.<.$.Q I ! A G l x w <.<.<.<.",
"<.<.$.P ~ X.-.y _ N d 8 ; <.<.<.",
"<.<.Z Y ..o.;.J < M z 7 # <.<.<.",
"<.p ( $.) ,.O.: K , a e @ 3 <.<.",
"<.Z o + { >.+.u t > k e = 2 <.<.",
"<.Z   . [ #.n H 9 D s q $ 1 <.<.",
"<.Z X O [ :.*.W V 6 k e * 2 <.<.",
"<.p / $.` =.@.b B & f e @ 4 <.<.",
"<.<.L T }  .%.i % m j 5 - <.<.<.",
"<.<.$.U ' | &.r R N f 0 ; <.<.<.",
"<.<.<.$.Q L ] Z S h c w <.<.<.<.",
"<.<.<.<.<.R ^ E F v <.<.<.<.<.<.",
"<.<.<.<.<.<.<.<.<.<.<.<.<.<.<.<.",
"<.<.<.<.<.<.<.<.<.<.<.<.<.<.<.<."
};
