/* XPM */
static char *bitcoin32[] = {
/* columns rows colors chars-per-pixel */
"32 32 129 2 ",
"   c #010605",
".  c #4C3729",
"X  c #674F11",
"o  c #6B5916",
"O  c #7C6219",
"+  c #BD621D",
"@  c #9D7B39",
"#  c #C0671D",
"$  c #C6731F",
"%  c #C67424",
"&  c #BD8B23",
"*  c #C78526",
"=  c #CC8325",
"-  c #C78827",
";  c #CA852A",
":  c #CB8C29",
">  c #D18326",
",  c #D38A25",
"<  c #D0862A",
"1  c #D38C2C",
"2  c #C49027",
"3  c #CB962A",
"4  c #D49126",
"5  c #D4912C",
"6  c #DB962D",
"7  c #D49C2E",
"8  c #DD992C",
"9  c #CB8F35",
"0  c #CA9437",
"q  c #C9923E",
"w  c #D59434",
"e  c #DB9630",
"r  c #DB9C32",
"t  c #D49239",
"y  c #D3993C",
"u  c #DA9D3A",
"i  c #E19F2F",
"p  c #E19E34",
"a  c #E09F3A",
"s  c #DCA02D",
"d  c #D7B32C",
"f  c #D9B42C",
"g  c #DBA232",
"h  c #DFAB3F",
"j  c #E5A422",
"k  c #E2A22B",
"l  c #E4A92D",
"z  c #E9AD2D",
"x  c #E6B526",
"c  c #E2B02F",
"v  c #EDB42D",
"b  c #E5BD2A",
"n  c #F1BC2F",
"m  c #E3A433",
"M  c #E4A935",
"N  c #E9AE34",
"B  c #E1A43C",
"V  c #E5A93E",
"C  c #E9AD3A",
"Z  c #E6B235",
"A  c #EDB434",
"S  c #EFB936",
"D  c #ECB339",
"F  c #EDBB3A",
"G  c #F2BD35",
"H  c #F2BD3B",
"J  c #E7C227",
"K  c #E6C42D",
"L  c #E6D52B",
"P  c #E7C332",
"I  c #ECC636",
"U  c #ECC832",
"Y  c #EDC03A",
"T  c #EDCA3A",
"R  c #F6C433",
"E  c #F8C631",
"W  c #FACA33",
"Q  c #F6C639",
"!  c #F7C83C",
"~  c #FACC3B",
"^  c #E5D432",
"/  c #E8D736",
"(  c #EBDA37",
")  c #E7D53D",
"_  c #EAD93B",
"`  c #FFD334",
"'  c #FDD33C",
"]  c #CB9A43",
"[  c #D49C43",
"{  c #D1A142",
"}  c #D3A549",
"|  c #DDA24A",
" . c #E3A541",
".. c #E6AB41",
"X. c #ECB442",
"o. c #EEBA42",
"O. c #F0BE49",
"+. c #E1BA50",
"@. c #E8B862",
"#. c #ECCA43",
"$. c #EDC24C",
"%. c #EECF49",
"&. c #F7CB46",
"*. c #F8CA41",
"=. c #EDD043",
"-. c #EBD841",
";. c #EAD249",
":. c #FDD343",
">. c #FCD44A",
",. c #EBC157",
"<. c #ECC758",
"1. c #F7CE56",
"2. c #ECD550",
"3. c #EDDA57",
"4. c #FBD452",
"5. c #FCD75D",
"6. c #F9DE5E",
"7. c #EDCD65",
"8. c #ECC769",
"9. c #EED377",
"0. c #F3D373",
"q. c #F9D777",
"w. c #F6DE77",
"e. c #FADB73",
"r. c #F3D478",
"t. c #F6DE7E",
"y. c #EEE16B",
"u. c #F2D481",
"i. c None",
/* pixels */
"i.i.i.i.i.i.i.i.i.i.i.i.i.i.i.i.i.i.i.i.i.i.i.i.i.i.i.i.i.i.i.i.",
"i.i.i.i.i.i.i.i.i.i.i.i.i.i.i.i.i.i.i.i.i.i.i.i.i.i.i.i.i.i.i.i.",
"i.i.i.i.i.i.i.i.i.i.i.i.i.i.i.i.i.i.i.i.i.i.i.i.i.i.i.i.i.i.i.i.",
"i.i.i.i.i.i.i.i.i.i.i.i.i.` ` ` ` W R i.i.i.i.i.i.i.i.i.i.i.i.i.",
"i.i.i.i.i.i.i.i.i.i.` ` n n v z z A N N F D i.i.i.i.i.i.i.i.i.i.",
"i.i.i.i.i.i.i.i.` ` W n v G G v D H A m m N C M i.i.i.i.i.i.i.i.",
"i.i.i.i.i.i.i.` ` n z E ` ` ` E ! W R H C 6 p M g i.i.i.i.i.i.i.",
"i.i.i.i.i.i.` ` v A ` ~ G R E , 6 Q A A N D e e g 7 i.i.i.i.i.i.",
"i.i.i.i.i.` ` v S ` W G ' ~ W $., Q Q G M C C e t 7 3 i.i.i.i.i.",
"i.i.i.i.i.` R A ` ` W Q ` ` q.;.4 G R H N C C M 5 y 3 i.i.i.i.i.",
"i.i.i.i.` ` k >.E W n ! ` 9.y.;.I Z 5 G A p ..r 7 ; { 2 i.i.i.i.",
"i.i.i.i.` v F >.W G Q ` r.3.^ P #.T S < H m  . .g : 9 0 i.i.i.i.",
"i.i.i.` n A 4.` ` W Q e.t._ K # u $.Q 1 8 M ..M g 7 * q & i.i.i.",
"i.i.i.` v o.` ` ` W Q e.w.( J s ` t < % > M ..M g 7 * q & i.i.i.",
"i.i.i.` v @ o o d W Q ` 9.-./ j S W Q D A m V M g s : q & i.i.i.",
"i.i.i.` z .   O X W Q ` 1.2.) ) U 8 M Q G M B B 7 3 - q & i.i.i.",
"i.i.i.` v .   O X W W ` ` W 6 x ;.T A 6 A M B  .r 7 * q & i.i.i.",
"i.i.i.` v @ o o d W Q 5.1.' ` R | <.F < p C V m g 7 * q & i.i.i.",
"i.i.i.` v X.` ` ` W Q 0.6./ u ` >.8.Y w > M ..M g 7 - ] & i.i.i.",
"i.i.i.` v A >.` ` W Q 0.6.L J j @.7.S < > M ..M g 7 * ] & i.i.i.",
"i.i.i.i.` v F ` ` E Q ` ,._ ^ ) =.Y M + i M ..m g : 0 ] i.i.i.i.",
"i.i.i.i.` ` l &.Q R v ' ` h +.U c = + i A p  .g 6 ; } 2 i.i.i.i.",
"i.i.i.i.i.` n A ` ` W ! ` ` W U = z R Q N C C m 1 [ 3 i.i.i.i.i.",
"i.i.i.i.i.` ` v A ` W G ` W W l $ n G G N M C 6 w 7 3 i.i.i.i.i.",
"i.i.i.i.i.i.` ` v v ` ~ R E W 8 , H G A A D e y g s i.i.i.i.i.i.",
"i.i.i.i.i.i.i.` ` R z R ` ` ` E Q W R G N 8 B M g i.i.i.i.i.i.i.",
"i.i.i.i.i.i.i.i.` ` W n v v R v A n N p m X.C M i.i.i.i.i.i.i.i.",
"i.i.i.i.i.i.i.i.i.i.` ` G A S v D A N X.O.D i.i.i.i.i.i.i.i.i.i.",
"i.i.i.i.i.i.i.i.i.i.i.i.` ` ` ` ` W Q G i.i.i.i.i.i.i.i.i.i.i.i.",
"i.i.i.i.i.i.i.i.i.i.i.i.i.i.i.i.i.i.i.i.i.i.i.i.i.i.i.i.i.i.i.i.",
"i.i.i.i.i.i.i.i.i.i.i.i.i.i.i.i.i.i.i.i.i.i.i.i.i.i.i.i.i.i.i.i.",
"i.i.i.i.i.i.i.i.i.i.i.i.i.i.i.i.i.i.i.i.i.i.i.i.i.i.i.i.i.i.i.i."
};
