/* XPM */
static char *bitcoin64[] = {
/* columns rows colors chars-per-pixel */
"64 64 215 2 ",
"   c #020200",
".  c #131004",
"X  c #120F04",
"o  c #2A1905",
"O  c #34391A",
"+  c #2C2409",
"@  c #766218",
"#  c #7A7A79",
"$  c #BA5B1A",
"%  c #937A1E",
"&  c #B9661D",
"*  c #C36C1C",
"=  c #CB7B1F",
"-  c #C7751D",
";  c #C57524",
":  c #C47C24",
">  c #CB7A23",
",  c #CA7C2A",
"<  c #C87D36",
"1  c #C16A21",
"2  c #B5A71C",
"3  c #BD8C24",
"4  c #DF8C14",
"5  c #CC8325",
"6  c #C18E25",
"7  c #CC8329",
"8  c #CB8C2A",
"9  c #C78426",
"0  c #D28425",
"q  c #D58B25",
"w  c #D48C2B",
"e  c #D08128",
"r  c #C39026",
"t  c #C69228",
"y  c #CA952B",
"u  c #CD982C",
"i  c #DA9426",
"p  c #DD9827",
"a  c #D5932D",
"s  c #DA932B",
"d  c #D39C2E",
"f  c #DE9A2B",
"g  c #CB873B",
"h  c #D08936",
"j  c #CB9A36",
"k  c #DA9632",
"l  c #DB9B32",
"z  c #D9953A",
"x  c #DE9C3A",
"c  c #D59936",
"v  c #E09E2A",
"b  c #E19922",
"n  c #E19E31",
"m  c #DBA232",
"M  c #DCA63C",
"N  c #D6A034",
"B  c #E3A32B",
"V  c #E6AA2C",
"C  c #E9AE2D",
"Z  c #E6AC22",
"A  c #EDB42D",
"S  c #EEB92D",
"D  c #E6B62C",
"F  c #F1BC2F",
"G  c #E1A534",
"H  c #E4A935",
"J  c #EAAE35",
"K  c #E2A53A",
"L  c #E7AB39",
"P  c #EAAE39",
"I  c #ECB434",
"U  c #EBBA34",
"Y  c #EDB638",
"T  c #ECBA3B",
"R  c #E7B237",
"E  c #F1BB36",
"W  c #F1BD3B",
"Q  c #EDCB2B",
"!  c #E9C534",
"~  c #E9CB36",
"^  c #EBC23A",
"/  c #EBC93A",
"(  c #F5C335",
")  c #FACB34",
"_  c #F4C33C",
"`  c #FACC3C",
"'  c #F5C731",
"]  c #E9D434",
"[  c #E7D936",
"{  c #EAD833",
"}  c #E9D33A",
"|  c #EBD93C",
" . c #E7D439",
".. c #FFD434",
"X. c #FFD43C",
"o. c #F1D93D",
"O. c #E7D42D",
"+. c #FFFF2F",
"@. c #83827C",
"#. c #BC9768",
"$. c #B2A67E",
"%. c #CE8A42",
"&. c #D89844",
"*. c #D19555",
"=. c #D59F5B",
"-. c #D18C4F",
";. c #DEA446",
":. c #D5A956",
">. c #D5A95B",
",. c #E1A542",
"<. c #E4AB41",
"1. c #E5AC4B",
"2. c #E5AA48",
"3. c #ECB543",
"4. c #EEBA44",
"5. c #EBB54A",
"6. c #ECBC4B",
"7. c #E7B048",
"8. c #F1BD43",
"9. c #E4AC56",
"0. c #E5B253",
"q. c #EAB654",
"w. c #EEBB53",
"e. c #EDBD5C",
"r. c #E1B35A",
"t. c #C29D72",
"y. c #C09D6D",
"u. c #D4A265",
"i. c #D5A56A",
"p. c #D8A869",
"a. c #DBB465",
"s. c #DAB36B",
"d. c #D6B269",
"f. c #DBB573",
"g. c #DEBB75",
"h. c #DCBC7C",
"j. c #DAB378",
"k. c #EBBE6A",
"l. c #E7B965",
"z. c #E6BD77",
"x. c #ECC24C",
"c. c #EAC949",
"v. c #F5C544",
"b. c #F9CC43",
"n. c #F6C948",
"m. c #E9D443",
"M. c #ECD34B",
"N. c #EBDB43",
"B. c #FED542",
"V. c #FDD44A",
"C. c #FFD94C",
"Z. c #F1DA45",
"A. c #EDCD5B",
"S. c #EBC652",
"D. c #F5CB5B",
"F. c #F2C457",
"G. c #EDDD5B",
"H. c #EDD954",
"J. c #FCD454",
"K. c #FFDA53",
"L. c #FBD45A",
"P. c #F4DD5B",
"I. c #FFDB5B",
"U. c #F3DC55",
"Y. c #F0E15F",
"T. c #EEE15D",
"R. c #CBD562",
"E. c #EFC066",
"W. c #EECC62",
"Q. c #EEC26B",
"!. c #EDCC69",
"~. c #F1C564",
"^. c #F4CB64",
"/. c #F1C66B",
"(. c #F4CD6B",
"). c #EDD866",
"_. c #FAD564",
"`. c #FEDD63",
"'. c #FEDE6A",
"]. c #F3DF65",
"[. c #ECC375",
"{. c #E9C378",
"}. c #F0D574",
"|. c #FBDB7B",
" X c #F7DB77",
".X c #F0CD74",
"XX c #FFE06C",
"oX c #F3E061",
"OX c #EEE079",
"+X c #FFE173",
"@X c #FEE37C",
"#X c #F3E376",
"$X c #818181",
"%X c #DDBF82",
"&X c #DEC186",
"*X c #E3C483",
"=X c #EAC88A",
"-X c #F4D888",
";X c #F5D294",
":X c #F4DC93",
">X c #F4DD9A",
",X c #EAC590",
"<X c #FFE483",
"1X c #F2E38C",
"2X c #FEE58C",
"3X c #FEE692",
"4X c #FFE895",
"5X c #FDEA9B",
"6X c #F9E899",
"7X c #F3D8A8",
"8X c #FEEBA3",
"9X c #F9E4A9",
"0X c #F9E8B3",
"qX c #FAF0AB",
"wX c None",
/* pixels */
"wXwXwXwXwXwXwXwXwXwXwXwXwXwXwXwXwXwXwXwXwXwXwXwXwXwXwXwXwXwXwXwXwXwXwXwXwXwXwXwXwXwXwXwXwXwXwXwXwXwXwXwXwXwXwXwXwXwXwXwXwXwXwXwX",
"wXwXwXwXwXwXwXwXwXwXwXwXwXwXwXwXwXwXwXwXwXwXwXwXwXwXwXwXwXwXwXwXwXwXwXwXwXwXwXwXwXwXwXwXwXwXwXwXwXwXwXwXwXwXwXwXwXwXwXwXwXwXwXwX",
"wXwXwXwXwXwXwXwXwXwXwXwXwXwXwXwXwXwXwXwXwXwXwXwXwXwXwXwXwXwXwXwXwXwXwXwXwXwXwXwXwXwXwXwXwXwXwXwXwXwXwXwXwXwXwXwXwXwXwXwXwXwXwXwX",
"wXwXwXwXwXwXwXwXwXwXwXwXwXwXwXwXwXwXwXwXwXwXwXwXwXwXwXwXwXwXwXwXwXwXwXwXwXwXwXwXwXwXwXwXwXwXwXwXwXwXwXwXwXwXwXwXwXwXwXwXwXwXwXwX",
"wXwXwXwXwXwXwXwXwXwXwXwXwXwXwXwXwXwXwXwXwXwXwXwXwXwXwXwXwXwXwXwXwXwXwXwXwXwXwXwXwXwXwXwXwXwXwXwXwXwXwXwXwXwXwXwXwXwXwXwXwXwXwXwX",
"wXwXwXwXwXwXwXwXwXwXwXwXwXwXwXwXwXwXwXwXwXwXwXwXwXwXwX............) ) ) wXwXwXwXwXwXwXwXwXwXwXwXwXwXwXwXwXwXwXwXwXwXwXwXwXwXwXwX",
"wXwXwXwXwXwXwXwXwXwXwXwXwXwXwXwXwXwXwXwXwXwXwX....................) ) ) ( ( ( E wXwXwXwXwXwXwXwXwXwXwXwXwXwXwXwXwXwXwXwXwXwXwXwX",
"wXwXwXwXwXwXwXwXwXwXwXwXwXwXwXwXwXwXwXwX..........................) ) ` ( _ _ E E Y Y wXwXwXwXwXwXwXwXwXwXwXwXwXwXwXwXwXwXwXwXwX",
"wXwXwXwXwXwXwXwXwXwXwXwXwXwXwXwXwXwXwX............) I V B v p w p p f B V E 8.W 8.Y Y P P wXwXwXwXwXwXwXwXwXwXwXwXwXwXwXwXwXwXwX",
"wXwXwXwXwXwXwXwXwXwXwXwXwXwXwXwXwX............) V v f B G B B k q.0.,.n k b v Y E 8.8.P P L wXwXwXwXwXwXwXwXwXwXwXwXwXwXwXwXwXwX",
"wXwXwXwXwXwXwXwXwXwXwXwXwXwXwX............( p i G x.J.K.C.X...T '.`.J.n.W J n w q J 4.5.3.L L G wXwXwXwXwXwXwXwXwXwXwXwXwXwXwXwX",
"wXwXwXwXwXwXwXwXwXwXwXwXwXwX..........) f s 6.I.I.I.I.........J `.` ) ` ) E W E n , w P 5.5.G G m wXwXwXwXwXwXwXwXwXwXwXwXwXwXwX",
"wXwXwXwXwXwXwXwXwXwXwXwXwX..........C 0 6.I.I.I...............C L.b.) ) ( ( ( W Y E n > z q.9.K m m wXwXwXwXwXwXwXwXwXwXwXwXwXwX",
"wXwXwXwXwXwXwXwXwXwXwXwX..........p x _.I.V.X.................V J.B.) ) ) ( W E E Y Y P , , q.q.M m d wXwXwXwXwXwXwXwXwXwXwXwXwX",
"wXwXwXwXwXwXwXwXwXwXwX..........q 0.|.I...F A A A F I A v.(.F.V 8.T I J H J V V n L 3.I Y s , 9.r.m d d wXwXwXwXwXwXwXwXwXwXwXwX",
"wXwXwXwXwXwXwXwXwXwX..........0 w.@X`.....A V.V.` ` ` ` |.;XQ.p n b._ _ W W 8.I Y ,.e.3.P P w , r.r.d d d wXwXwXwXwXwXwXwXwXwXwX",
"wXwXwXwXwXwXwXwXwXwX........0 F.<XI.......A K.C.X.X.X.X.3X7X1X~ > f ` _ b._ v.W Y K F.5.L L L a < l.0.u u wXwXwXwXwXwXwXwXwXwXwX",
"wXwXwXwXwXwXwXwXwX........p 0.<XI.........A I...........5X7X1X! > > ) ) ( ( ( E E H e.5.Y L G m 7 %.l.:.u y wXwXwXwXwXwXwXwXwXwX",
"wXwXwXwXwXwXwXwXwX......C z <XXX..........U I.....X.XX<X4X;X1X! = = ) ) ) E E E E n w.5.L L H G m : :.a.j u t wXwXwXwXwXwXwXwXwX",
"wXwXwXwXwXwXwXwX......) q '.XXB...........T I...B.2X2X>X1X|.G.! S B w v ) ( ( E Y G 3.3.P L L m m l ; a.a.y t wXwXwXwXwXwXwXwXwX",
"wXwXwXwXwXwXwX........i ;.+Xv.E ' F F ' E 6.`.B.2X9X6XOX).G.m.~ ~ ~ / T 7 E W E E v n K n n n l a m : *.g.j t r wXwXwXwXwXwXwXwX",
"wXwXwXwXwXwXwX......' q |.^._ ! E F F B 5._.I.2XqXqXOXT. .~ ~ ~ ^ ^ U T _ e U E E J n n 9.,.x z c a a ; g.s.t 6 wXwXwXwXwXwXwXwX",
"wXwXwXwXwXwXwX......p r.<XI.X.B.X.....A _.`.C.8X0X6XT.O.{  .Q S c.M.c.R Y L > W E Y L &.k.q.<.<.M m d 9 *.g.j r wXwXwXwXwXwXwXwX",
"wXwXwXwXwXwX......) i <XXX............A L.K.@X0X0X#X| {  .D - * ;.!.A.T Y Y w 0 W E P x /.L G G m m d d ; f.>.r 3 wXwXwXwXwXwXwX",
"wXwXwXwXwXwX......D 7.<X..............A J.K.3X0X8XoX[ [ Q - $ 0 Q.z.}.T T T G > J Y J n k.P H G m m d d : =.f.3 6 wXwXwXwXwXwXwX",
"wXwXwXwXwXwX......v .X<X..............A L.K.4X0X6XP.{ [ Q $ 0 ..|.{.W.T R T L , s Y J n k.L H G m m d d 3 g f.:.3 wXwXwXwXwXwXwX",
"wXwXwXwXwXwX....U f -XXX....o.) ......A L.K.2X0X6XU.{ [ Q * B ..I.^.h > ; ; ; 1 , Y P n k.J L G m m N u t ; d.d.6 3 wXwXwXwXwXwX",
"wXwXwXwXwX......C 0.2XX.......O.......A L.K.@X7X6X].{ { [ Z p ....b.B > q 0 0 > n Y P z k.J H G m m N u y : i.g.3 3 wXwXwXwXwXwX",
"wXwXwXwXwX......B =.$.@ @ @ @ 3 ......A J.K.I.6X5XoXN.[ ]  .S p ' ) ) ' ( ( ( W E Y P n Q.L H H m m d d u : u.h.3 3 wXwXwXwXwXwX",
"wXwXwXwXwX......p #.#   X     + ......A L.K.X.@X:X#XH.N.] ~ } ~ U i V ) ( ( ( E E Y I n e.P H m m m d d y 9 u.&X3 3 wXwXwXwXwXwX",
"wXwXwXwXwX......q #.$X    O 2 o % ~ ..A L.K...I.'.{.oXN.} } ~ ~ / / U w I ( ( W E Y P k w.L H G m N d d y : u.&X6 3 wXwXwXwXwXwX",
"wXwXwXwXwX......q #.$X    R.+.&   @ ..A J.K.....I.L.:.P.M.N.m.^ ! ! ^ _ l v W E E Y Y a 1.&.a a q q 8 8 8 ; i.&X3 3 wXwXwXwXwXwX",
"wXwXwXwXwX......i t.$X    O 2 + % ' ..A L.K.......C.K.x z D ~ M.c.c.U R ^ l f E E Y P n k.q.<.<.K M M u y 9 i.&X3 3 wXwXwXwXwXwX",
"wXwXwXwXwX......f #.@.. . . . + ......A L.K...........V.` w , ;.A.A.c.U U T > G E Y J n k.P K K M m N d y 9 u.&X3 3 wXwXwXwXwXwX",
"wXwXwXwXwX......B k.2X................A L.`.+X`.I.C.C.......B.7.>..X^.T T T l , E Y P &.k.P L G m N d d y : y.&X3 3 wXwXwXwXwXwX",
"wXwXwXwXwX......V 0.<XB...............A L.3X>X-X!.W.S.6.L ....C.2X,X-Xx.R Y L ; v Y P n e.P H G m m d d y : d.{.3 3 wXwXwXwXwXwX",
"wXwXwXwXwX......S m  X`...............S L.5X0X4XP.Z.O.{ 7 B ....5X7X:XS.T Y L , w Y P n E.L H H m m d d y ; j.f.3 3 wXwXwXwXwXwX",
"wXwXwXwXwXwX....) p ~.@X..............A L.4X9X5X_.| {  .l q ..'.8X7X:XS.R Y H > 0 Y P n E.L H m m m d d 9 g h.>.3 wXwXwXwXwXwXwX",
"wXwXwXwXwXwX......A 2.@XX.............A L.<X>X5X'.Z.{ [ Q 4 E (.=X>X}.4.T Y l ; 0 Y J x E.L G G m m d d 9 p.g.j 6 wXwXwXwXwXwXwX",
"wXwXwXwXwXwX........s '.XX............A L.I.@X:X#XU.[ { { { / D. X}.x.R T R , $ p I R x E.L L G m m d d ; h.>.3 3 wXwXwXwXwXwXwX",
"wXwXwXwXwXwXwX......p q.+X............A J.J.I.|.1XP.N.| ] ~ } M.S.c.U U E l $ * J Y P n l.J G G m m d 9 *.*Xj r wXwXwXwXwXwXwXwX",
"wXwXwXwXwXwXwX......' q XXK...........A V.I.B.I.(.W.H.[  .m.~ ! ~ / ^ R k $ $ s Y Y J n e.P L G m m d 1 h.g.r 6 wXwXwXwXwXwXwXwX",
"wXwXwXwXwXwXwX........f x L.T S S U F B 3.D.K...I.S.z x.M.M.M.! U D a ; $ $ i E Y H s z 2.z k s a d : u.*Xj t r wXwXwXwXwXwXwXwX",
"wXwXwXwXwXwXwXwX........= D._.n._ ' ( ' _ F.I.....C.b.l -.l.).! 5 $ $ $ > A W W Y n H q.9.2.n s l a < =Xg.u t wXwXwXwXwXwXwXwXwX",
"wXwXwXwXwXwXwXwX........A l XX`.C.B.X...) 8.I.....) ....@X;XOX! - * I ' ( ( ( E E n w.w.5.3.K H m > z.*Xd y y wXwXwXwXwXwXwXwXwX",
"wXwXwXwXwXwXwXwXwX........i ,.`.I.........S I...........<X;X).! = = ) ) ) ( E E E G e.5.P P J H 5 *.{.:.u y wXwXwXwXwXwXwXwXwXwX",
"wXwXwXwXwXwXwXwXwXwX........q 7.Y.C.......A B.X.........`.E.v b * = ' ) ( ( ( E E H e.5.P H H w %.{.l.u u wXwXwXwXwXwXwXwXwXwXwX",
"wXwXwXwXwXwXwXwXwXwX..........0 3.I.C.....A F ( ' F ' ( n.n.i 5 5 p E A I I I P J ,.e.Y P P w < {.{.c u u wXwXwXwXwXwXwXwXwXwXwX",
"wXwXwXwXwXwXwXwXwXwXwX..........q K C.B...( T W E E E E U A I v 8.8.I P J J P V K 5.Y P Y h g [.z.m d d wXwXwXwXwXwXwXwXwXwXwXwX",
"wXwXwXwXwXwXwXwXwXwXwXwX..........f a b.X...B.B.V.X.B.X.X.....I `.L.b.b.b.b.8.W Y Y Y P , &.[.[.M N d wXwXwXwXwXwXwXwXwXwXwXwXwX",
"wXwXwXwXwXwXwXwXwXwXwXwXwX..........A q H X.B.B.X.............C `.b.) ( E ( ( W Y Y s > 9.[.k.m m m wXwXwXwXwXwXwXwXwXwXwXwXwXwX",
"wXwXwXwXwXwXwXwXwXwXwXwXwXwX..........) p i V ) ..............C L.B.) ) ) ( E Y v 0 &.k./.e.H G m wXwXwXwXwXwXwXwXwXwXwXwXwXwXwX",
"wXwXwXwXwXwXwXwXwXwXwXwXwXwXwX............' B i p C ) ........A B.) ) ) Y V s q &.e./.k.Y L K G wXwXwXwXwXwXwXwXwXwXwXwXwXwXwXwX",
"wXwXwXwXwXwXwXwXwXwXwXwXwXwXwXwXwX............) C v f b v B B q G v v v s n 9.~.^.D.3.Y Y L wXwXwXwXwXwXwXwXwXwXwXwXwXwXwXwXwXwX",
"wXwXwXwXwXwXwXwXwXwXwXwXwXwXwXwXwXwX......) ......) A H G K G K 2.,.,.2.w.^.^.D.W E Y Y L wXwXwXwXwXwXwXwXwXwXwXwXwXwXwXwXwXwXwX",
"wXwXwXwXwXwXwXwXwXwXwXwXwXwXwXwXwXwXwXwX..............X.C.B.V.C.J.J.J.J.L.D.8.E E Y Y wXwXwXwXwXwXwXwXwXwXwXwXwXwXwXwXwXwXwXwXwX",
"wXwXwXwXwXwXwXwXwXwXwXwXwXwXwXwXwXwXwXwXwXwXwX....................) ) ) ( ( W E wXwXwXwXwXwXwXwXwXwXwXwXwXwXwXwXwXwXwXwXwXwXwXwX",
"wXwXwXwXwXwXwXwXwXwXwXwXwXwXwXwXwXwXwXwXwXwXwXwXwXwX..............) ) ) ) wXwXwXwXwXwXwXwXwXwXwXwXwXwXwXwXwXwXwXwXwXwXwXwXwXwXwX",
"wXwXwXwXwXwXwXwXwXwXwXwXwXwXwXwXwXwXwXwXwXwXwXwXwXwXwXwXwXwXwXwXwXwXwXwXwXwXwXwXwXwXwXwXwXwXwXwXwXwXwXwXwXwXwXwXwXwXwXwXwXwXwXwX",
"wXwXwXwXwXwXwXwXwXwXwXwXwXwXwXwXwXwXwXwXwXwXwXwXwXwXwXwXwXwXwXwXwXwXwXwXwXwXwXwXwXwXwXwXwXwXwXwXwXwXwXwXwXwXwXwXwXwXwXwXwXwXwXwX",
"wXwXwXwXwXwXwXwXwXwXwXwXwXwXwXwXwXwXwXwXwXwXwXwXwXwXwXwXwXwXwXwXwXwXwXwXwXwXwXwXwXwXwXwXwXwXwXwXwXwXwXwXwXwXwXwXwXwXwXwXwXwXwXwX",
"wXwXwXwXwXwXwXwXwXwXwXwXwXwXwXwXwXwXwXwXwXwXwXwXwXwXwXwXwXwXwXwXwXwXwXwXwXwXwXwXwXwXwXwXwXwXwXwXwXwXwXwXwXwXwXwXwXwXwXwXwXwXwXwX",
"wXwXwXwXwXwXwXwXwXwXwXwXwXwXwXwXwXwXwXwXwXwXwXwXwXwXwXwXwXwXwXwXwXwXwXwXwXwXwXwXwXwXwXwXwXwXwXwXwXwXwXwXwXwXwXwXwXwXwXwXwXwXwXwX",
"wXwXwXwXwXwXwXwXwXwXwXwXwXwXwXwXwXwXwXwXwXwXwXwXwXwXwXwXwXwXwXwXwXwXwXwXwXwXwXwXwXwXwXwXwXwXwXwXwXwXwXwXwXwXwXwXwXwXwXwXwXwXwXwX"
};
